<svg width="48" height="379" viewBox="0 0 48 379" fill="none" xmlns="http://www.w3.org/2000/svg">
<path fill-rule="evenodd" clip-rule="evenodd" d="M47.472 0L47.472 378.018H-24.3303L-24.3303 0L47.472 0Z" fill="#272726"/>
<path fill-rule="evenodd" clip-rule="evenodd" d="M48 2.6398V11.0871L-22.7465 11.0871V2.6398L48 2.6398Z" fill="#FFFFFE"/>
<path fill-rule="evenodd" clip-rule="evenodd" d="M47.472 10.5591V23.2301L-23.2744 23.2301V10.5591L47.472 10.5591Z" fill="#FFFFFE"/>
<path fill-rule="evenodd" clip-rule="evenodd" d="M47.472 23.2302V35.9012H-23.2744V23.2302L47.472 23.2302Z" fill="#FFFFFE"/>
<path fill-rule="evenodd" clip-rule="evenodd" d="M47.472 35.9012V48.5722H-23.2744V35.9012L47.472 35.9012Z" fill="#FFFFFE"/>
<path fill-rule="evenodd" clip-rule="evenodd" d="M47.472 48.5722V61.2432H-23.2744V48.5722L47.472 48.5722Z" fill="#FFFFFE"/>
<path fill-rule="evenodd" clip-rule="evenodd" d="M47.472 61.2432V73.9142H-23.2744V61.2432L47.472 61.2432Z" fill="#FFFFFE"/>
<path fill-rule="evenodd" clip-rule="evenodd" d="M47.472 73.9142V86.5852H-23.2744V73.9142H47.472Z" fill="#FFFFFE"/>
<path fill-rule="evenodd" clip-rule="evenodd" d="M47.472 86.5852V99.2562H-23.2744V86.5852H47.472Z" fill="#FFFFFE"/>
<path fill-rule="evenodd" clip-rule="evenodd" d="M47.472 99.2562V111.927H-23.2744V99.2562H47.472Z" fill="#FFFFFE"/>
<path fill-rule="evenodd" clip-rule="evenodd" d="M47.472 111.927V124.598H-23.2744V111.927H47.472Z" fill="#FFFFFE"/>
<path fill-rule="evenodd" clip-rule="evenodd" d="M47.472 124.598V137.269H-23.2744V124.598H47.472Z" fill="#FFFFFE"/>
<path fill-rule="evenodd" clip-rule="evenodd" d="M47.472 137.269V149.94H-23.2744V137.269H47.472Z" fill="#FFFFFE"/>
<path fill-rule="evenodd" clip-rule="evenodd" d="M47.472 149.94V162.611H-23.2744V149.94H47.472Z" fill="#FFFFFE"/>
<path fill-rule="evenodd" clip-rule="evenodd" d="M47.472 162.611V175.282H-23.2744V162.611H47.472Z" fill="#FFFFFE"/>
<path fill-rule="evenodd" clip-rule="evenodd" d="M47.472 175.282V187.953H-23.2744V175.282H47.472Z" fill="#FFFFFE"/>
<path fill-rule="evenodd" clip-rule="evenodd" d="M47.472 187.953V200.624H-23.2744V187.953H47.472Z" fill="#FFFFFE"/>
<path fill-rule="evenodd" clip-rule="evenodd" d="M47.472 200.624V213.295H-23.2744V200.624H47.472Z" fill="#FFFFFE"/>
<path fill-rule="evenodd" clip-rule="evenodd" d="M47.472 213.295V225.966H-23.2744V213.295H47.472Z" fill="#FFFFFE"/>
<path fill-rule="evenodd" clip-rule="evenodd" d="M47.472 225.966V238.637H-23.2744V225.966H47.472Z" fill="white"/>
<path fill-rule="evenodd" clip-rule="evenodd" d="M47.472 238.637V251.308H-23.2744V238.637H47.472Z" fill="#FFFFFE"/>
<path fill-rule="evenodd" clip-rule="evenodd" d="M47.472 251.308V263.979H-23.2744V251.308H47.472Z" fill="#FFFFFE"/>
<path fill-rule="evenodd" clip-rule="evenodd" d="M47.472 263.979V276.65H-23.2744V263.979H47.472Z" fill="#FFFFFE"/>
<path fill-rule="evenodd" clip-rule="evenodd" d="M47.472 276.65V289.321H-23.2744V276.65H47.472Z" fill="#FFFFFE"/>
<path fill-rule="evenodd" clip-rule="evenodd" d="M47.472 289.321V301.992H-23.2744V289.321H47.472Z" fill="#FFFFFE"/>
<path fill-rule="evenodd" clip-rule="evenodd" d="M47.472 301.992V314.663H-23.2744V301.992H47.472Z" fill="#FFFFFE"/>
<path fill-rule="evenodd" clip-rule="evenodd" d="M47.472 314.663V327.334H-23.2744V314.663H47.472Z" fill="#FFFFFE"/>
<path fill-rule="evenodd" clip-rule="evenodd" d="M47.472 327.334V340.005H-23.2744V327.334H47.472Z" fill="#FFFFFE"/>
<path fill-rule="evenodd" clip-rule="evenodd" d="M47.472 340.005V352.676H-23.2744V340.005H47.472Z" fill="#FFFFFE"/>
<path fill-rule="evenodd" clip-rule="evenodd" d="M47.472 352.676V365.347H-23.2744V352.676H47.472Z" fill="#FFFFFE"/>
<path fill-rule="evenodd" clip-rule="evenodd" d="M47.472 365.347V378.018H-23.2744V365.347H47.472Z" fill="#FFFFFE"/>
<path fill-rule="evenodd" clip-rule="evenodd" d="M26.3537 2.11182V10.5592L-23.2744 10.5592V2.11182L26.3537 2.11182Z" fill="#272726"/>
<path fill-rule="evenodd" clip-rule="evenodd" d="M26.3537 31.6775V40.1248H-23.2744V31.6775L26.3537 31.6775Z" fill="#272726"/>
<path fill-rule="evenodd" clip-rule="evenodd" d="M26.3537 44.3485V52.7958H-23.2744V44.3485H26.3537Z" fill="#272726"/>
<path fill-rule="evenodd" clip-rule="evenodd" d="M26.3537 69.6905V78.1378H-23.2744V69.6905H26.3537Z" fill="#272726"/>
<path fill-rule="evenodd" clip-rule="evenodd" d="M26.3537 82.3615V90.8088H-23.2744V82.3615H26.3537Z" fill="#272726"/>
<path fill-rule="evenodd" clip-rule="evenodd" d="M26.3537 95.0325V103.48H-23.2744V95.0325H26.3537Z" fill="#272726"/>
<path fill-rule="evenodd" clip-rule="evenodd" d="M26.3537 120.375V128.822H-23.2744V120.375H26.3537Z" fill="#272726"/>
<path fill-rule="evenodd" clip-rule="evenodd" d="M26.3537 133.046V141.493H-23.2744V133.046H26.3537Z" fill="#272726"/>
<path fill-rule="evenodd" clip-rule="evenodd" d="M26.3537 158.388V166.835H-23.2744V158.388H26.3537Z" fill="#272726"/>
<path fill-rule="evenodd" clip-rule="evenodd" d="M26.3537 171.059V179.506H-23.2744V171.059H26.3537Z" fill="#272726"/>
<path fill-rule="evenodd" clip-rule="evenodd" d="M26.3537 183.73V192.177H-23.2744V183.73H26.3537Z" fill="#272726"/>
<path fill-rule="evenodd" clip-rule="evenodd" d="M26.3537 208.016V216.463H-23.2744V208.016H26.3537Z" fill="#272726"/>
<path fill-rule="evenodd" clip-rule="evenodd" d="M26.3537 222.798V231.246H-23.2744V222.798H26.3537Z" fill="#272726"/>
<path fill-rule="evenodd" clip-rule="evenodd" d="M26.3537 247.085V255.532H-23.2744V247.085H26.3537Z" fill="#272726"/>
<path fill-rule="evenodd" clip-rule="evenodd" d="M26.3537 259.756V268.203H-23.2744V259.756H26.3537Z" fill="#272726"/>
<path fill-rule="evenodd" clip-rule="evenodd" d="M26.3537 272.427V280.874H-23.2744V272.427H26.3537Z" fill="#272726"/>
<path fill-rule="evenodd" clip-rule="evenodd" d="M26.3537 297.769V306.216H-23.2744V297.769H26.3537Z" fill="#272726"/>
<path fill-rule="evenodd" clip-rule="evenodd" d="M26.3537 310.44V318.887H-23.2744V310.44H26.3537Z" fill="#272726"/>
<path fill-rule="evenodd" clip-rule="evenodd" d="M26.3537 335.782V344.229H-23.2744V335.782H26.3537Z" fill="#272726"/>
<path fill-rule="evenodd" clip-rule="evenodd" d="M26.3537 348.453V356.9H-23.2744V348.453H26.3537Z" fill="#272726"/>
<path fill-rule="evenodd" clip-rule="evenodd" d="M26.3537 362.179V370.627H-23.2744V362.179H26.3537Z" fill="#272726"/>
</svg>
