<?xml version="1.0" encoding="utf-8"?>
<!-- Generator: Adobe Illustrator 24.0.2, SVG Export Plug-In . SVG Version: 6.00 Build 0)  -->
<svg version="1.1" id="Capa_1" xmlns="http://www.w3.org/2000/svg" xmlns:xlink="http://www.w3.org/1999/xlink" x="0px" y="0px"
	 viewBox="0 0 806 311" style="enable-background:new 0 0 806 311;" xml:space="preserve">
<style type="text/css">
	.st0{fill-rule:evenodd;clip-rule:evenodd;fill:#FFFFFF;fill-opacity:4.000000e-02;}
	.st1{fill-rule:evenodd;clip-rule:evenodd;fill-opacity:5.000000e-02;}
</style>
<path class="st0" d="M-2,239v12h809.5v-12H-2z"/>
<path class="st1" d="M-2,251v12h809.5v-12H-2z"/>
<path class="st0" d="M-2,263v12h809.5v-12H-2z"/>
<path class="st1" d="M-2,275v12h809.5v-12H-2z"/>
<path class="st0" d="M-2,287v12h809.5v-12H-2z"/>
<path class="st1" d="M-2,299v12h809.5v-12H-2z"/>
<path class="st0" d="M-2,167v12h809.5v-12H-2z"/>
<path class="st1" d="M-2,179v12h809.5v-12H-2z"/>
<path class="st0" d="M-2,191v12h809.5v-12H-2z"/>
<path class="st1" d="M-2,203v12h809.5v-12H-2z"/>
<path class="st0" d="M-2,215v12h809.5v-12H-2z"/>
<path class="st1" d="M-2,227v12h809.5v-12H-2z"/>
<path class="st1" d="M-2,83v12h809.5V83H-2z"/>
<path class="st0" d="M-2,95v12h809.5V95H-2z"/>
<path class="st1" d="M-2,107v12h809.5v-12H-2z"/>
<path class="st0" d="M-2,119v12h809.5v-12H-2z"/>
<path class="st1" d="M-2,131v12h809.5v-12H-2z"/>
<path class="st0" d="M-2,143v12h809.5v-12H-2z"/>
<path class="st1" d="M-2,155v12h809.5v-12H-2z"/>
<path class="st0" d="M-2,0v12h809.5V0H-2z"/>
<path class="st1" d="M-2,12v12h809.5V12H-2z"/>
<path class="st0" d="M-2,24v12h809.5V24H-2z"/>
<path class="st1" d="M-2,36v12h809.5V36H-2z"/>
<path class="st0" d="M-2,48v12h809.5V48H-2z"/>
<path class="st1" d="M-2,60v12h809.5V60H-2z"/>
<path class="st0" d="M-2,72v12h809.5V72H-2z"/>
</svg>
