<svg width="18" height="21" viewBox="0 0 18 21" fill="none" xmlns="http://www.w3.org/2000/svg">
<g opacity="0.7">
<path d="M10.5 1H7.5C6.5335 1 5.75 1.7835 5.75 2.75C5.75 3.7165 6.5335 4.5 7.5 4.5H10.5C11.4665 4.5 12.25 3.7165 12.25 2.75C12.25 1.7835 11.4665 1 10.5 1Z" fill="white" stroke="white" stroke-width="1.5"/>
<path fill-rule="evenodd" clip-rule="evenodd" d="M5.04646 2.2832C5.01596 2.44397 5 2.60989 5 2.77954C5 3.13298 5.06927 3.47024 5.19498 3.77849C4.66343 3.79763 4.20914 3.82964 3.81078 3.8832C2.88786 4.00728 2.49287 4.22173 2.23223 4.48236C1.9716 4.74299 1.75715 5.13799 1.63307 6.06091C1.50319 7.02698 1.5 8.32212 1.5 10.2501V12.2501C1.5 14.1781 1.50319 15.4732 1.63307 16.4393C1.75715 17.3622 1.9716 17.7572 2.23223 18.0179C2.49287 18.2785 2.88786 18.493 3.81078 18.617C4.77686 18.7469 6.07198 18.7501 8 18.7501H10C11.928 18.7501 13.2231 18.7469 14.1892 18.617C15.1121 18.493 15.5071 18.2785 15.7678 18.0179C16.0284 17.7572 16.2428 17.3622 16.3669 16.4393C16.4968 15.4732 16.5 14.1781 16.5 12.2501V10.2501C16.5 8.32212 16.4968 7.02698 16.3669 6.06091C16.2428 5.13799 16.0284 4.74299 15.7678 4.48236C15.5071 4.22173 15.1121 4.00728 14.1892 3.8832C13.7909 3.82964 13.3366 3.79763 12.805 3.77849C12.9307 3.47024 13 3.13298 13 2.77954C13 2.60989 12.984 2.44397 12.9535 2.2832C14.8533 2.35875 16.0136 2.60686 16.8284 3.4217C18 4.59327 18 6.47889 18 10.2501V12.2501C18 16.0213 18 17.907 16.8284 19.0785C15.6569 20.2501 13.7712 20.2501 10 20.2501H8C4.22876 20.2501 2.34315 20.2501 1.17157 19.0785C-1.19209e-07 17.907 0 16.0213 0 12.2501V10.2501C0 6.47889 -1.19209e-07 4.59327 1.17157 3.4217C1.98641 2.60686 3.14665 2.35875 5.04646 2.2832Z" fill="white"/>
<path d="M7 11.75L8.5 13.25L11.5 10.25" fill="white"/>
<path d="M7 11.75L8.5 13.25L11.5 10.25" stroke="white" stroke-width="1.5" stroke-linecap="round" stroke-linejoin="round"/>
</g>
</svg>
