<svg width="479" height="230" viewBox="0 0 479 230" fill="none" xmlns="http://www.w3.org/2000/svg">
<path fill-rule="evenodd" clip-rule="evenodd" d="M114.399 132.259L175.611 180.124C190.519 162.739 213.229 151.616 238.679 151.557L238.679 204.234L238.583 204.235C226.409 204.423 215.466 209.418 207.773 217.308L162.717 201.265L162.777 201.119L88.0771 174.843C94.3596 159.272 103.306 144.916 114.399 132.259Z" fill="#BB8F72"/>
<path fill-rule="evenodd" clip-rule="evenodd" d="M114.399 132.259L175.611 180.124C190.519 162.739 213.229 151.616 238.679 151.557L238.679 204.234L238.583 204.235C226.409 204.423 215.466 209.418 207.773 217.308L162.717 201.265L162.777 201.119L88.0771 174.843C94.3596 159.272 103.306 144.916 114.399 132.259Z" fill="url(#paint0_linear_93_694)" fill-opacity="0.05"/>
<path fill-rule="evenodd" clip-rule="evenodd" d="M357.396 127.81L301.252 178.893C286.343 162.215 264.112 151.613 239.271 151.557L238.882 204.214L239.37 204.218C250.534 204.39 260.662 208.607 268.197 215.391L312.798 195.886L312.745 195.781L383.908 164.809C377 151.236 368.034 138.781 357.396 127.81Z" fill="#9F7664"/>
<path fill-rule="evenodd" clip-rule="evenodd" d="M357.396 127.81L301.252 178.893C286.343 162.215 264.112 151.613 239.271 151.557L238.882 204.214L239.37 204.218C250.534 204.39 260.662 208.607 268.197 215.391L312.798 195.886L312.745 195.781L383.908 164.809C377 151.236 368.034 138.781 357.396 127.81Z" fill="url(#paint1_linear_93_694)" fill-opacity="0.05"/>
<path fill-rule="evenodd" clip-rule="evenodd" d="M14.0474 150.065L207.626 217.942C204.581 221.144 202.07 224.81 200.224 228.816L0.00467429 228.379C0.00155962 227.901 0 227.422 0 226.944C0 199.961 4.95447 174.077 14.0474 150.065Z" fill="#CDA582"/>
<path fill-rule="evenodd" clip-rule="evenodd" d="M14.0474 150.065L207.626 217.942C204.581 221.144 202.07 224.81 200.224 228.816L0.00467429 228.379C0.00155962 227.901 0 227.422 0 226.944C0 199.961 4.95447 174.077 14.0474 150.065Z" fill="url(#paint2_linear_93_694)" fill-opacity="0.05"/>
<path fill-rule="evenodd" clip-rule="evenodd" d="M384.962 165.037L268.837 215.819C273.141 219.791 276.57 224.614 278.822 230L399.859 229.236L399.838 226.768C399.461 204.743 394.171 183.851 384.962 165.037Z" fill="#916A59"/>
<path fill-rule="evenodd" clip-rule="evenodd" d="M384.962 165.037L268.837 215.819C273.141 219.791 276.57 224.614 278.822 230L399.859 229.236L399.838 226.768C399.461 204.743 394.171 183.851 384.962 165.037Z" fill="url(#paint3_linear_93_694)" fill-opacity="0.05"/>
<path fill-rule="evenodd" clip-rule="evenodd" d="M457.694 133.281L386.31 164.578C395.97 184.082 401.416 205.838 401.533 228.788L478.899 228.621C478.902 228.128 478.904 227.634 478.904 227.14C478.904 193.685 471.32 161.911 457.694 133.281Z" fill="#7E5D4E"/>
<path fill-rule="evenodd" clip-rule="evenodd" d="M457.694 133.281L386.31 164.578C395.97 184.082 401.416 205.838 401.533 228.788L478.899 228.621C478.902 228.128 478.904 227.634 478.904 227.14C478.904 193.685 471.32 161.911 457.694 133.281Z" fill="url(#paint4_linear_93_694)" fill-opacity="0.05"/>
<path fill-rule="evenodd" clip-rule="evenodd" d="M86.0312 52.1718L109.887 79.8786C82.4934 101.059 61.0085 128.916 48.1563 160.852L14.4777 148.656C29.1642 110.751 54.0804 77.5741 86.0312 52.1718Z" fill="#FFA988"/>
<path fill-rule="evenodd" clip-rule="evenodd" d="M86.0312 52.1718L109.887 79.8786C82.4934 101.059 61.0085 128.916 48.1563 160.852L14.4777 148.656C29.1642 110.751 54.0804 77.5741 86.0312 52.1718Z" fill="url(#paint5_linear_93_694)" fill-opacity="0.05"/>
<path fill-rule="evenodd" clip-rule="evenodd" d="M180.869 6.92438L190.371 42.8874C161.215 49.4818 134.498 61.9888 111.724 78.9886L87.9448 51.0717C114.732 30.4553 146.313 15.1679 180.869 6.92438Z" fill="#F1E6CD"/>
<path fill-rule="evenodd" clip-rule="evenodd" d="M180.869 6.92438L190.371 42.8874C161.215 49.4818 134.498 61.9888 111.724 78.9886L87.9448 51.0717C114.732 30.4553 146.313 15.1679 180.869 6.92438Z" fill="url(#paint6_linear_93_694)" fill-opacity="0.05"/>
<path fill-rule="evenodd" clip-rule="evenodd" d="M239.706 0C258.286 0 276.374 2.00134 293.741 5.78902L284.743 42.8047C269.628 39.3986 253.857 37.5955 237.642 37.5955C222.153 37.5955 207.069 39.2407 192.575 42.3568L183.55 6.26131C201.564 2.1679 220.368 0 239.706 0Z" fill="#F4AC90"/>
<path fill-rule="evenodd" clip-rule="evenodd" d="M239.706 0C258.286 0 276.374 2.00134 293.741 5.78902L284.743 42.8047C269.628 39.3986 253.857 37.5955 237.642 37.5955C222.153 37.5955 207.069 39.2407 192.575 42.3568L183.55 6.26131C201.564 2.1679 220.368 0 239.706 0Z" fill="url(#paint7_linear_93_694)" fill-opacity="0.05"/>
<path fill-rule="evenodd" clip-rule="evenodd" d="M395.683 55.1184L369.675 84.1408C346.226 64.9261 318.102 50.7457 287.149 43.36L296.638 6.4955C333.818 15.1451 367.59 32.0751 395.683 55.1184Z" fill="#DD735C"/>
<path fill-rule="evenodd" clip-rule="evenodd" d="M395.683 55.1184L369.675 84.1408C346.226 64.9261 318.102 50.7457 287.149 43.36L296.638 6.4955C333.818 15.1451 367.59 32.0751 395.683 55.1184Z" fill="url(#paint8_linear_93_694)" fill-opacity="0.05"/>
<path fill-rule="evenodd" clip-rule="evenodd" d="M456.713 131.455L420.827 147.609C408.98 123.751 392.127 102.58 371.558 85.3211L397.954 56.6237C422.581 77.3224 442.695 102.768 456.713 131.455Z" fill="#B16148"/>
<path fill-rule="evenodd" clip-rule="evenodd" d="M456.713 131.455L420.827 147.609C408.98 123.751 392.127 102.58 371.558 85.3211L397.954 56.6237C422.581 77.3224 442.695 102.768 456.713 131.455Z" fill="url(#paint9_linear_93_694)" fill-opacity="0.05"/>
<path fill-rule="evenodd" clip-rule="evenodd" d="M112 82L136 110C114.347 126.85 96.2889 149.29 86.0516 174.576L49.1177 161.201C62.3078 130.169 84.9403 102.537 112 82Z" fill="#E3977A"/>
<path fill-rule="evenodd" clip-rule="evenodd" d="M112 82L136 110C114.347 126.85 96.2889 149.29 86.0516 174.576L49.1177 161.201C62.3078 130.169 84.9403 102.537 112 82Z" fill="url(#paint10_linear_93_694)" fill-opacity="0.05"/>
<path fill-rule="evenodd" clip-rule="evenodd" d="M190.916 44.951L200.615 81.6562C177.295 86.5987 156.407 96.4139 137.5 109L113.578 81.1646C135.883 64.1556 162.171 51.6052 190.916 44.951Z" fill="#BECCC0"/>
<path fill-rule="evenodd" clip-rule="evenodd" d="M190.916 44.951L200.615 81.6562C177.295 86.5987 156.407 96.4139 137.5 109L113.578 81.1646C135.883 64.1556 162.171 51.6052 190.916 44.951Z" fill="url(#paint11_linear_93_694)" fill-opacity="0.05"/>
<path fill-rule="evenodd" clip-rule="evenodd" d="M237.642 39.5536C253.698 39.5536 269.313 41.3396 284.28 44.7132L275.357 81.4157C263.689 78.8557 251.534 77.5026 239.045 77.5026C226.424 77.5026 214.143 78.8846 202.362 81.4977L193.051 44.2626C207.393 41.1807 222.317 39.5536 237.642 39.5536Z" fill="#AABDA0"/>
<path fill-rule="evenodd" clip-rule="evenodd" d="M237.642 39.5536C253.698 39.5536 269.313 41.3396 284.28 44.7132L275.357 81.4157C263.689 78.8557 251.534 77.5026 239.045 77.5026C226.424 77.5026 214.143 78.8846 202.362 81.4977L193.051 44.2626C207.393 41.1807 222.317 39.5536 237.642 39.5536Z" fill="url(#paint12_linear_93_694)" fill-opacity="0.05"/>
<path fill-rule="evenodd" clip-rule="evenodd" d="M368.217 85.7683L343.278 113.598C324.441 98.5516 301.957 87.4834 277.265 81.7573L286.623 45.4036C317.226 52.7721 345.029 66.8009 368.217 85.7683Z" fill="#7E9278"/>
<path fill-rule="evenodd" clip-rule="evenodd" d="M368.217 85.7683L343.278 113.598C324.441 98.5516 301.957 87.4834 277.265 81.7573L286.623 45.4036C317.226 52.7721 345.029 66.8009 368.217 85.7683Z" fill="url(#paint13_linear_93_694)" fill-opacity="0.05"/>
<path fill-rule="evenodd" clip-rule="evenodd" d="M418.696 148.569L384.72 163.863C375.054 144.878 361.395 128.072 344.781 114.432L369.962 87.0565C390.299 104.099 406.967 125.006 418.696 148.569Z" fill="#6E7864"/>
<path fill-rule="evenodd" clip-rule="evenodd" d="M418.696 148.569L384.72 163.863C375.054 144.878 361.395 128.072 344.781 114.432L369.962 87.0565C390.299 104.099 406.967 125.006 418.696 148.569Z" fill="url(#paint14_linear_93_694)" fill-opacity="0.05"/>
<path fill-rule="evenodd" clip-rule="evenodd" d="M240.57 79.1161V112C269.5 112 305.5 127 329 152L355.5 127C326.62 97.2469 286.532 79.6201 240.57 79.1161Z" fill="#FFEB9A"/>
<path fill-rule="evenodd" clip-rule="evenodd" d="M240.57 79.1161V112C269.5 112 305.5 127 329 152L355.5 127C326.62 97.2469 286.532 79.6201 240.57 79.1161Z" fill="url(#paint15_linear_93_694)" fill-opacity="0.05"/>
<path fill-rule="evenodd" clip-rule="evenodd" d="M239 79L238.982 112.502C238.682 112.5 238.383 112.499 238.083 112.499C200.762 112.499 165.816 128.528 143 152.5L115 131.5C144.732 100.348 190.452 79.0878 239 79Z" fill="#FFF2BA"/>
<path fill-rule="evenodd" clip-rule="evenodd" d="M239 79L238.982 112.502C238.682 112.5 238.383 112.499 238.083 112.499C200.762 112.499 165.816 128.528 143 152.5L115 131.5C144.732 100.348 190.452 79.0878 239 79Z" fill="url(#paint16_linear_93_694)" fill-opacity="0.05"/>
<path fill-rule="evenodd" clip-rule="evenodd" d="M240.214 114.125L239.929 150.024C264.093 150.665 285.794 160.6 301.167 176.178L327.501 153.07C305.624 130.487 274.738 115.814 240.214 114.125Z" fill="#FFE37A"/>
<path fill-rule="evenodd" clip-rule="evenodd" d="M240.214 114.125L239.929 150.024C264.093 150.665 285.794 160.6 301.167 176.178L327.501 153.07C305.624 130.487 274.738 115.814 240.214 114.125Z" fill="url(#paint17_linear_93_694)" fill-opacity="0.05"/>
<path fill-rule="evenodd" clip-rule="evenodd" d="M238.171 114.55L237.942 149.868C212.845 150.357 190.355 160.919 174.782 177.466L144.5 153.5C167.642 129.715 201.402 114.708 238.171 114.55Z" fill="#EFDC92"/>
<path fill-rule="evenodd" clip-rule="evenodd" d="M238.171 114.55L237.942 149.868C212.845 150.357 190.355 160.919 174.782 177.466L144.5 153.5C167.642 129.715 201.402 114.708 238.171 114.55Z" fill="url(#paint18_linear_93_694)" fill-opacity="0.05"/>
<defs>
<linearGradient id="paint0_linear_93_694" x1="208.414" y1="164.975" x2="162.345" y2="231.991" gradientUnits="userSpaceOnUse">
<stop/>
<stop offset="1" stop-opacity="0"/>
</linearGradient>
<linearGradient id="paint1_linear_93_694" x1="268.026" y1="161.5" x2="316.523" y2="227.472" gradientUnits="userSpaceOnUse">
<stop/>
<stop offset="1" stop-opacity="0"/>
</linearGradient>
<linearGradient id="paint2_linear_93_694" x1="165.902" y1="180.359" x2="131.126" y2="255.679" gradientUnits="userSpaceOnUse">
<stop/>
<stop offset="1" stop-opacity="0"/>
</linearGradient>
<linearGradient id="paint3_linear_93_694" x1="295.167" y1="190.026" x2="328.514" y2="245.278" gradientUnits="userSpaceOnUse">
<stop/>
<stop offset="1" stop-opacity="0"/>
</linearGradient>
<linearGradient id="paint4_linear_93_694" x1="404.917" y1="170.02" x2="458.922" y2="213.032" gradientUnits="userSpaceOnUse">
<stop/>
<stop offset="1" stop-opacity="0"/>
</linearGradient>
<linearGradient id="paint5_linear_93_694" x1="90.713" y1="93.9779" x2="30.8853" y2="137.125" gradientUnits="userSpaceOnUse">
<stop/>
<stop offset="1" stop-opacity="0"/>
</linearGradient>
<linearGradient id="paint6_linear_93_694" x1="169.787" y1="34.6454" x2="128.475" y2="82.8819" gradientUnits="userSpaceOnUse">
<stop/>
<stop offset="1" stop-opacity="0"/>
</linearGradient>
<linearGradient id="paint7_linear_93_694" x1="271.597" y1="16.4657" x2="252.403" y2="57.057" gradientUnits="userSpaceOnUse">
<stop/>
<stop offset="1" stop-opacity="0"/>
</linearGradient>
<linearGradient id="paint8_linear_93_694" x1="373.871" y1="36.3634" x2="329.252" y2="87.6005" gradientUnits="userSpaceOnUse">
<stop/>
<stop offset="1" stop-opacity="0"/>
</linearGradient>
<linearGradient id="paint9_linear_93_694" x1="439.6" y1="91.623" x2="388.586" y2="130.846" gradientUnits="userSpaceOnUse">
<stop/>
<stop offset="1" stop-opacity="0"/>
</linearGradient>
<linearGradient id="paint10_linear_93_694" x1="118.54" y1="117.611" x2="66.5978" y2="157.658" gradientUnits="userSpaceOnUse">
<stop/>
<stop offset="1" stop-opacity="0"/>
</linearGradient>
<linearGradient id="paint11_linear_93_694" x1="183.124" y1="69.5888" x2="146.189" y2="110.821" gradientUnits="userSpaceOnUse">
<stop/>
<stop offset="1" stop-opacity="0"/>
</linearGradient>
<linearGradient id="paint12_linear_93_694" x1="265.946" y1="55.6883" x2="245.205" y2="92.7487" gradientUnits="userSpaceOnUse">
<stop/>
<stop offset="1" stop-opacity="0"/>
</linearGradient>
<linearGradient id="paint13_linear_93_694" x1="349.939" y1="71.6359" x2="310.54" y2="114.803" gradientUnits="userSpaceOnUse">
<stop/>
<stop offset="1" stop-opacity="0"/>
</linearGradient>
<linearGradient id="paint14_linear_93_694" x1="403.842" y1="116.602" x2="360.484" y2="150.879" gradientUnits="userSpaceOnUse">
<stop/>
<stop offset="1" stop-opacity="0"/>
</linearGradient>
<linearGradient id="paint15_linear_93_694" x1="263.667" y1="107.152" x2="304.573" y2="160.144" gradientUnits="userSpaceOnUse">
<stop/>
<stop offset="1" stop-opacity="0"/>
</linearGradient>
<linearGradient id="paint16_linear_93_694" x1="214.081" y1="107.273" x2="173.613" y2="163.359" gradientUnits="userSpaceOnUse">
<stop/>
<stop offset="1" stop-opacity="0"/>
</linearGradient>
<linearGradient id="paint17_linear_93_694" x1="257.528" y1="137.995" x2="293.139" y2="179.28" gradientUnits="userSpaceOnUse">
<stop/>
<stop offset="1" stop-opacity="0"/>
</linearGradient>
<linearGradient id="paint18_linear_93_694" x1="219.346" y1="138.752" x2="183.573" y2="182.506" gradientUnits="userSpaceOnUse">
<stop/>
<stop offset="1" stop-opacity="0"/>
</linearGradient>
</defs>
</svg>
