<svg width="25" height="19" viewBox="0 0 25 19" fill="none" xmlns="http://www.w3.org/2000/svg">
<path d="M19.2083 10.9732V8.32549C19.2083 5.70803 19.2083 4.39928 18.3688 3.95252C17.5293 3.50577 16.4438 4.23683 14.2727 5.69896L12.2135 7.08584C10.3724 8.32565 9.45197 8.9456 9.47073 9.8101C9.48942 10.6747 10.4359 11.2541 12.3288 12.4131L14.3882 13.6739C16.5224 14.9806 17.5895 15.6339 18.3989 15.1804C19.2083 14.7269 19.2083 13.4757 19.2083 10.9732Z" stroke="white" stroke-width="1.5" stroke-linecap="round" stroke-linejoin="round"/>
<path d="M3.57292 3.16666H2.78125C1.79749 3.16666 1 3.96415 1 4.94791V14.4479C1 15.4317 1.79749 16.2292 2.78125 16.2292H3.57292C4.55667 16.2292 5.35417 15.4317 5.35417 14.4479V4.94791C5.35417 3.96415 4.55667 3.16666 3.57292 3.16666Z" stroke="white" stroke-width="1.5"/>
</svg>
