<svg width="25" height="19" viewBox="0 0 25 19" fill="none" xmlns="http://www.w3.org/2000/svg">
<path d="M6.29163 10.9732V8.32549C6.29163 5.70803 6.29163 4.39928 7.13113 3.95252C7.97063 3.50577 9.05613 4.23683 11.2272 5.69896L13.2865 7.08584C15.1275 8.32565 16.048 8.9456 16.0292 9.8101C16.0105 10.6747 15.064 11.2541 13.1711 12.4131L11.1118 13.6739C8.97751 14.9806 7.91043 15.6339 7.10103 15.1804C6.29163 14.7269 6.29163 13.4757 6.29163 10.9732Z" stroke="white" stroke-width="1.5" stroke-linecap="round" stroke-linejoin="round"/>
<path d="M22.3229 3.16666H21.5313C20.5475 3.16666 19.75 3.96415 19.75 4.94791V14.4479C19.75 15.4317 20.5475 16.2292 21.5313 16.2292H22.3229C23.3067 16.2292 24.1042 15.4317 24.1042 14.4479V4.94791C24.1042 3.96415 23.3067 3.16666 22.3229 3.16666Z" stroke="white" stroke-width="1.5"/>
</svg>
